<?xml version="1.0" standalone="no"?>
<!DOCTYPE svg PUBLIC "-//W3C//DTD SVG 20010904//EN"
 "http://www.w3.org/TR/2001/REC-SVG-20010904/DTD/svg10.dtd">
<svg version="1.0" xmlns="http://www.w3.org/2000/svg"
 width="200.000000pt" height="200.000000pt" viewBox="0 0 200.000000 200.000000"
 preserveAspectRatio="xMidYMid meet">

<g transform="translate(0.000000,200.000000) scale(0.100000,-0.100000)"
fill="#000000" stroke="none">
<path d="M1330 1085 l0 -135 25 0 25 0 0 105 0 105 98 0 c101 0 122 -7 122
-41 0 -33 -39 -49 -117 -49 -71 0 -73 -1 -73 -25 0 -25 1 -25 80 -25 119 0
160 27 160 105 0 43 -33 79 -81 89 -18 3 -78 6 -135 6 l-104 0 0 -135z"/>
<path d="M913 1198 c-4 -7 -22 -66 -39 -130 l-30 -118 32 0 c31 0 32 1 44 68
7 37 16 73 19 79 4 8 21 -13 43 -55 71 -130 82 -131 148 -9 l44 82 19 -82 c18
-81 19 -83 48 -83 16 0 29 3 29 6 0 11 -50 204 -60 229 -18 48 -49 29 -96 -58
-22 -43 -45 -82 -50 -87 -6 -6 -28 24 -59 80 -47 89 -72 109 -92 78z"/>
<path d="M187 1165 c-21 -20 -37 -41 -37 -48 0 -7 -9 -18 -19 -24 -17 -11 -18
-16 -8 -43 9 -24 9 -35 -2 -53 -13 -20 -13 -21 3 -7 25 20 49 22 42 4 -3 -9
-1 -12 4 -9 6 3 10 1 10 -6 0 -7 3 -9 7 -6 3 4 0 19 -7 33 -13 23 -12 30 12
72 15 26 31 48 36 50 5 1 32 -31 61 -73 29 -41 54 -75 57 -75 3 0 2 6 -3 13
-11 17 -11 77 0 77 5 0 -6 19 -24 43 -32 42 -78 87 -90 87 -3 0 -22 -16 -42
-35z"/>
<path d="M516 1179 c-19 -15 -26 -30 -26 -54 0 -50 20 -59 137 -65 77 -4 106
-9 113 -20 20 -33 -15 -45 -136 -48 -111 -4 -115 -4 -112 -25 2 -12 6 -21 11
-19 4 1 61 2 127 2 107 0 122 2 140 20 22 22 26 69 10 100 -14 26 -70 40 -156
40 -76 0 -90 5 -73 27 8 9 41 13 120 13 l109 0 0 25 0 25 -119 0 c-105 0 -121
-2 -145 -21z"/>
<path d="M1700 1180 c-21 -21 -28 -92 -12 -117 14 -22 61 -32 162 -34 107 -2
133 6 102 34 -13 12 -41 17 -101 19 -65 2 -86 7 -94 20 -8 12 -7 21 2 32 11
13 35 16 117 16 l104 0 0 25 0 25 -130 0 c-117 0 -132 -2 -150 -20z"/>
<path d="M448 1048 c-3 -35 -2 -88 2 -118 6 -45 7 -34 9 63 0 64 -1 117 -3
117 -2 0 -5 -28 -8 -62z"/>
<path d="M209 1023 c-11 -13 -11 -17 -1 -20 6 -3 10 -9 6 -14 -3 -5 6 -4 19 2
23 11 24 12 9 30 -20 23 -17 23 -33 2z m26 -21 c-3 -3 -11 0 -18 7 -9 10 -8
11 6 5 10 -3 15 -9 12 -12z"/>
<path d="M1695 995 c0 -14 6 -25 13 -25 8 0 12 9 10 22 -4 30 -23 33 -23 3z"/>
<path d="M1740 991 c0 -11 18 -13 88 -9 131 6 143 23 16 23 -81 0 -104 -3
-104 -14z"/>
<path d="M1932 969 c-25 -12 -73 -22 -115 -24 -49 -3 -64 -2 -47 4 21 7 16 9
-27 10 -57 1 -68 -8 -59 -45 5 -17 13 -24 31 -24 13 0 26 4 29 9 3 4 34 12 68
15 69 8 135 33 157 59 16 20 17 20 -37 -4z"/>
<path d="M360 951 c5 -11 15 -23 21 -27 6 -3 3 5 -6 20 -20 30 -30 35 -15 7z"/>
<path d="M148 929 c-32 -16 -58 -32 -58 -34 0 -3 27 8 60 25 33 16 65 30 72
30 6 0 26 -12 42 -27 l31 -28 -29 33 c-17 17 -37 32 -45 32 -9 -1 -42 -14 -73
-31z"/>
<path d="M1905 915 c-27 -13 -73 -27 -101 -31 -39 -4 -51 -10 -47 -20 12 -32
115 -7 171 42 44 39 42 40 -23 9z"/>
<path d="M490 870 c0 -40 0 -40 38 -38 36 1 36 1 5 5 -41 5 -43 23 -3 23 17 0
30 5 30 10 0 6 -14 10 -32 10 -36 0 -28 16 12 23 18 3 15 5 -12 6 -38 1 -38 1
-38 -39z"/>
<path d="M642 873 l-2 -43 43 2 42 1 -37 4 c-34 4 -37 7 -41 41 l-4 37 -1 -42z"/>
<path d="M790 870 c0 -40 0 -40 38 -38 36 1 36 1 5 5 -18 2 -33 8 -33 14 0 9
22 13 49 10 7 -2 10 2 6 8 -3 6 -18 11 -33 11 -31 0 -19 16 18 23 18 3 15 5
-12 6 -38 1 -38 1 -38 -39z"/>
<path d="M964 902 c-17 -11 -22 -35 -12 -54 6 -13 20 -18 46 -17 l37 2 -35 6
c-29 5 -35 10 -35 31 0 21 6 26 35 31 34 6 34 6 5 8 -16 0 -35 -3 -41 -7z"/>
<path d="M1123 903 c16 -4 21 -19 18 -55 -1 -10 3 -18 8 -18 6 0 11 15 11 34
0 24 5 36 18 39 9 3 -3 5 -28 5 -25 0 -37 -2 -27 -5z"/>
<path d="M1267 903 c-11 -10 -8 -61 3 -68 6 -4 10 8 10 30 0 35 1 36 33 33 41
-4 43 -30 2 -39 -22 -5 -24 -7 -8 -8 12 0 25 -5 28 -11 3 -5 11 -10 17 -10 7
0 6 6 -2 15 -9 10 -9 15 -1 15 17 0 13 37 -5 44 -21 8 -69 8 -77 -1z"/>
<path d="M1453 870 c0 -25 2 -35 4 -22 2 12 2 32 0 45 -2 12 -4 2 -4 -23z"/>
<path d="M1556 894 c-19 -18 -19 -20 -6 -45 8 -14 20 -19 48 -18 l37 2 -35 6
c-29 5 -35 10 -35 31 0 21 6 26 35 31 l35 6 -32 2 c-17 0 -39 -6 -47 -15z"/>
<path d="M1758 893 c7 -3 16 -2 19 1 4 3 -2 6 -13 5 -11 0 -14 -3 -6 -6z"/>
<path d="M860 784 c0 -14 4 -23 9 -20 5 3 7 15 4 26 -7 28 -13 25 -13 -6z"/>
<path d="M742 780 c0 -14 2 -19 5 -12 2 6 2 18 0 25 -3 6 -5 1 -5 -13z"/>
<path d="M1150 796 c0 -2 7 -9 15 -16 9 -7 15 -8 15 -2 0 5 -7 12 -15 16 -8 3
-15 4 -15 2z"/>
<path d="M1312 780 c0 -14 2 -19 5 -12 2 6 2 18 0 25 -3 6 -5 1 -5 -13z"/>
<path d="M1381 793 c-1 -17 16 -25 25 -12 4 7 3 9 -4 5 -5 -3 -13 0 -15 6 -4
9 -6 10 -6 1z"/>
<path d="M1261 774 c0 -11 3 -14 6 -6 3 7 2 16 -1 19 -3 4 -6 -2 -5 -13z"/>
<path d="M607 773 c18 -2 50 -2 70 0 21 2 7 4 -32 4 -38 0 -55 -2 -38 -4z"/>
<path d="M1777 773 c18 -2 50 -2 70 0 21 2 7 4 -32 4 -38 0 -55 -2 -38 -4z"/>
</g>
</svg>
